# xmcd
#
# Track frame offsets:
#	150
#	12560
#	25797
#	36500
#	50925
#	68300
#	82247
#	95507
#	107657
#	129442
#	140337
#	152562
#	163707
#	192720
#
# Disc length: 2574 seconds
#
# Revision: 0
# Processed by: cddbd v1.4PL0 Copyright (c) Steve Scherf et al.
# Submitted via: dBpowerAMP V4.0
#
DISCID=c20a0c0e
DTITLE=Celeste Krenz - Hello Country
DYEAR=1996
DGENRE=Country
TTITLE0=I'm Movin' On
TTITLE1=Am I Blue
TTITLE2=Right or Wrong
TTITLE3=Walk On By
TTITLE4=Faded Love
TTITLE5=Make the World Go Away
TTITLE6=It Wasn't God Who Made Honky Tonk Angels
TTITLE7=You Nearly Lose Your Mind
TTITLE8=Crazy
TTITLE9=Miss the Mississippi and You
TTITLE10=Oh Lonesome Me
TTITLE11=Stay a Little Longer
TTITLE12=I'll Hold You in My Heart
TTITLE13=
EXTD=
EXTT0=
EXTT1=
EXTT2=
EXTT3=
EXTT4=
EXTT5=
EXTT6=
EXTT7=
EXTT8=
EXTT9=
EXTT10=
EXTT11=
EXTT12=
EXTT13=
PLAYORDER=
